# xmcd
#
# Track frame offsets: 
#        188
#        27913
#        56600
#
# Disc length: 982 seconds
#
# Revision: 0
# Processed by: cddbd v1.5.2PL0 Copyright (c) Steve Scherf et al.
# Submitted via: ExactAudioCopy v1.0b3
#
DISCID=1e03d403
DTITLE=Rob'n'Raz Feat. Leila K - Rok The Nation (Remixes)
DYEAR=1900
DGENRE=
TTITLE0=Rok The Nation (Panik Mix)
TTITLE1=Rok The Nation (Funk-E-Drummer Mix)
TTITLE2=Rok The Nation (Like A Drum Mix)
EXTD=
EXTT0=
EXTT1=
EXTT2=
PLAYORDER=
